<svg width="584" height="433" viewBox="0 0 584 433" fill="none" xmlns="http://www.w3.org/2000/svg">
<g clip-path="url(#clip0_551_739)">
<rect width="584" height="433" rx="15" fill="#FBFBFB"/>
<line opacity="0.5" x1="129.51" y1="388" x2="129.51" y2="90" stroke="#B1B1B1" stroke-width="0.97909"/>
<line opacity="0.5" x1="384.51" y1="388" x2="384.51" y2="90" stroke="#B1B1B1" stroke-width="0.97909"/>
<line opacity="0.5" x1="214.51" y1="388" x2="214.51" y2="90" stroke="#B1B1B1" stroke-width="0.97909"/>
<line x1="469.51" y1="388" x2="469.51" y2="90" stroke="#B1B1B1" stroke-width="0.97909"/>
<line opacity="0.5" x1="299.51" y1="388" x2="299.51" y2="90" stroke="#B1B1B1" stroke-width="0.97909"/>
<line opacity="0.5" x1="554.51" y1="388" x2="554.51" y2="90" stroke="#B1B1B1" stroke-width="0.97909"/>
<path d="M130 166.423V388.165H554.313V205.511C545.107 192.482 524.435 164.709 515.397 157.851C504.098 149.279 500.332 171.384 481.502 205.511C466.438 232.812 449.281 216.887 442.586 205.511L409.946 185.211C403.251 196.018 387.852 212.795 379.817 193.449C371.783 174.102 352.199 167.371 343.412 166.423C332.685 174.549 307.638 193.743 293.265 205.511C275.3 220.221 269.537 204.04 253.944 185.211C238.352 166.383 221.403 189.036 210.895 193.449C200.387 197.862 189.879 176.385 187.506 171.384C185.133 166.383 171.235 172.855 164.117 171.384C158.422 170.207 156.329 155.274 148.342 156.045L130 166.423Z" fill="url(#paint0_linear_551_739)"/>
<path d="M130 166.423L148.342 156.045C156.329 155.274 158.422 170.207 164.117 171.384C171.235 172.855 185.133 166.383 187.506 171.384C189.879 176.385 200.387 197.862 210.895 193.449C221.403 189.036 238.352 166.383 253.944 185.211C269.537 204.04 275.3 220.221 293.265 205.511C307.638 193.743 332.685 174.549 343.412 166.423C352.199 167.371 371.783 174.102 379.817 193.449C387.852 212.795 403.251 196.018 409.946 185.211L442.586 205.511C449.281 216.887 466.438 232.812 481.502 205.511C500.332 171.384 504.098 149.279 515.397 157.851C524.435 164.709 545.107 192.482 554.313 205.511" stroke="#A8D507" stroke-width="1.73711"/>
<path d="M37.1455 288.273V275.545H37.9608V288.273H37.1455ZM39.8898 279.364C39.8301 278.86 39.5882 278.469 39.164 278.19C38.7397 277.912 38.2194 277.773 37.6029 277.773C37.1521 277.773 36.7577 277.846 36.4196 277.991C36.0849 278.137 35.823 278.338 35.6341 278.593C35.4485 278.848 35.3557 279.138 35.3557 279.463C35.3557 279.735 35.4203 279.969 35.5496 280.164C35.6822 280.356 35.8512 280.517 36.0567 280.646C36.2622 280.772 36.4776 280.877 36.703 280.96C36.9284 281.039 37.1355 281.104 37.3245 281.153L38.3586 281.432C38.6237 281.501 38.9187 281.598 39.2435 281.72C39.5716 281.843 39.8848 282.01 40.1831 282.222C40.4847 282.431 40.7333 282.7 40.9289 283.028C41.1244 283.356 41.2222 283.759 41.2222 284.236C41.2222 284.786 41.078 285.283 40.7897 285.727C40.5046 286.171 40.087 286.524 39.5368 286.786C38.9899 287.048 38.3254 287.179 37.5432 287.179C36.814 287.179 36.1827 287.061 35.649 286.826C35.1187 286.591 34.7011 286.263 34.3962 285.842C34.0946 285.421 33.9239 284.932 33.8841 284.375H35.1569C35.19 284.759 35.3193 285.078 35.5446 285.33C35.7733 285.578 36.0617 285.764 36.4097 285.886C36.761 286.006 37.1389 286.065 37.5432 286.065C38.0139 286.065 38.4364 285.989 38.811 285.837C39.1855 285.681 39.4821 285.465 39.7009 285.19C39.9196 284.912 40.029 284.587 40.029 284.216C40.029 283.878 39.9345 283.603 39.7456 283.391C39.5567 283.179 39.3081 283.006 38.9999 282.874C38.6917 282.741 38.3586 282.625 38.0006 282.526L36.7478 282.168C35.9523 281.939 35.3226 281.612 34.8586 281.188C34.3945 280.764 34.1625 280.209 34.1625 279.523C34.1625 278.953 34.3167 278.455 34.6249 278.031C34.9364 277.604 35.3541 277.272 35.8777 277.037C36.4047 276.798 36.993 276.679 37.6426 276.679C38.2989 276.679 38.8822 276.797 39.3926 277.032C39.9031 277.264 40.3074 277.582 40.6057 277.987C40.9073 278.391 41.0664 278.85 41.083 279.364H39.8898ZM46.2299 276.818V287H44.997V278.111H44.9373L42.4515 279.761V278.509L44.997 276.818H46.2299ZM52.0592 287.139C51.3102 287.139 50.6721 286.935 50.1452 286.528C49.6182 286.117 49.2155 285.522 48.9371 284.743C48.6586 283.961 48.5194 283.016 48.5194 281.909C48.5194 280.809 48.6586 279.869 48.9371 279.09C49.2188 278.308 49.6231 277.711 50.1501 277.3C50.6804 276.886 51.3168 276.679 52.0592 276.679C52.8016 276.679 53.4363 276.886 53.9633 277.3C54.4936 277.711 54.898 278.308 55.1764 279.09C55.4581 279.869 55.599 280.809 55.599 281.909C55.599 283.016 55.4598 283.961 55.1814 284.743C54.903 285.522 54.5003 286.117 53.9733 286.528C53.4463 286.935 52.8083 287.139 52.0592 287.139ZM52.0592 286.045C52.8016 286.045 53.3783 285.687 53.7893 284.972C54.2003 284.256 54.4058 283.235 54.4058 281.909C54.4058 281.027 54.3113 280.277 54.1224 279.657C53.9368 279.037 53.6684 278.565 53.317 278.24C52.969 277.915 52.5497 277.753 52.0592 277.753C51.3234 277.753 50.7484 278.116 50.3341 278.842C49.9198 279.564 49.7126 280.587 49.7126 281.909C49.7126 282.791 49.8054 283.54 49.991 284.156C50.1766 284.773 50.4434 285.242 50.7915 285.563C51.1428 285.885 51.5654 286.045 52.0592 286.045ZM58.4826 285.608L58.4031 286.145C58.3467 286.523 58.2605 286.927 58.1445 287.358C58.0319 287.789 57.9142 288.195 57.7916 288.576C57.6689 288.957 57.5678 289.26 57.4883 289.486H56.5934C56.6365 289.274 56.6928 288.994 56.7624 288.646C56.832 288.298 56.9016 287.908 56.9712 287.477C57.0442 287.05 57.1038 286.612 57.1502 286.165L57.2099 285.608H58.4826ZM63.1821 287.139C62.4331 287.139 61.795 286.935 61.268 286.528C60.7411 286.117 60.3384 285.522 60.0599 284.743C59.7815 283.961 59.6423 283.016 59.6423 281.909C59.6423 280.809 59.7815 279.869 60.0599 279.09C60.3417 278.308 60.746 277.711 61.273 277.3C61.8033 276.886 62.4397 276.679 63.1821 276.679C63.9245 276.679 64.5592 276.886 65.0862 277.3C65.6165 277.711 66.0209 278.308 66.2993 279.09C66.581 279.869 66.7219 280.809 66.7219 281.909C66.7219 283.016 66.5827 283.961 66.3043 284.743C66.0259 285.522 65.6232 286.117 65.0962 286.528C64.5692 286.935 63.9312 287.139 63.1821 287.139ZM63.1821 286.045C63.9245 286.045 64.5012 285.687 64.9122 284.972C65.3232 284.256 65.5287 283.235 65.5287 281.909C65.5287 281.027 65.4342 280.277 65.2453 279.657C65.0597 279.037 64.7912 278.565 64.4399 278.24C64.0919 277.915 63.6726 277.753 63.1821 277.753C62.4463 277.753 61.8713 278.116 61.457 278.842C61.0427 279.564 60.8355 280.587 60.8355 281.909C60.8355 282.791 60.9283 283.54 61.1139 284.156C61.2995 284.773 61.5663 285.242 61.9144 285.563C62.2657 285.885 62.6883 286.045 63.1821 286.045ZM71.5121 287.139C70.7631 287.139 70.125 286.935 69.598 286.528C69.0711 286.117 68.6684 285.522 68.3899 284.743C68.1115 283.961 67.9723 283.016 67.9723 281.909C67.9723 280.809 68.1115 279.869 68.3899 279.09C68.6717 278.308 69.076 277.711 69.603 277.3C70.1333 276.886 70.7697 276.679 71.5121 276.679C72.2545 276.679 72.8892 276.886 73.4162 277.3C73.9465 277.711 74.3509 278.308 74.6293 279.09C74.911 279.869 75.0519 280.809 75.0519 281.909C75.0519 283.016 74.9127 283.961 74.6343 284.743C74.3559 285.522 73.9532 286.117 73.4262 286.528C72.8992 286.935 72.2612 287.139 71.5121 287.139ZM71.5121 286.045C72.2545 286.045 72.8312 285.687 73.2422 284.972C73.6532 284.256 73.8587 283.235 73.8587 281.909C73.8587 281.027 73.7642 280.277 73.5753 279.657C73.3897 279.037 73.1212 278.565 72.7699 278.24C72.4219 277.915 72.0026 277.753 71.5121 277.753C70.7763 277.753 70.2013 278.116 69.787 278.842C69.3727 279.564 69.1655 280.587 69.1655 281.909C69.1655 282.791 69.2583 283.54 69.4439 284.156C69.6295 284.773 69.8963 285.242 70.2444 285.563C70.5957 285.885 71.0183 286.045 71.5121 286.045ZM79.8421 287.139C79.0931 287.139 78.455 286.935 77.928 286.528C77.4011 286.117 76.9984 285.522 76.7199 284.743C76.4415 283.961 76.3023 283.016 76.3023 281.909C76.3023 280.809 76.4415 279.869 76.7199 279.09C77.0017 278.308 77.406 277.711 77.933 277.3C78.4633 276.886 79.0997 276.679 79.8421 276.679C80.5845 276.679 81.2192 276.886 81.7462 277.3C82.2765 277.711 82.6809 278.308 82.9593 279.09C83.241 279.869 83.3819 280.809 83.3819 281.909C83.3819 283.016 83.2427 283.961 82.9643 284.743C82.6859 285.522 82.2832 286.117 81.7562 286.528C81.2292 286.935 80.5912 287.139 79.8421 287.139ZM79.8421 286.045C80.5845 286.045 81.1612 285.687 81.5722 284.972C81.9832 284.256 82.1887 283.235 82.1887 281.909C82.1887 281.027 82.0942 280.277 81.9053 279.657C81.7197 279.037 81.4512 278.565 81.0999 278.24C80.7519 277.915 80.3326 277.753 79.8421 277.753C79.1063 277.753 78.5313 278.116 78.117 278.842C77.7027 279.564 77.4955 280.587 77.4955 281.909C77.4955 282.791 77.5883 283.54 77.7739 284.156C77.9595 284.773 78.2263 285.242 78.5744 285.563C78.9257 285.885 79.3483 286.045 79.8421 286.045ZM86.2655 285.608L86.186 286.145C86.1296 286.523 86.0434 286.927 85.9274 287.358C85.8147 287.789 85.6971 288.195 85.5745 288.576C85.4518 288.957 85.3507 289.26 85.2712 289.486H84.3763C84.4194 289.274 84.4757 288.994 84.5453 288.646C84.6149 288.298 84.6845 287.908 84.7541 287.477C84.8271 287.05 84.8867 286.612 84.9331 286.165L84.9928 285.608H86.2655ZM90.965 287.139C90.2159 287.139 89.5779 286.935 89.0509 286.528C88.5239 286.117 88.1212 285.522 87.8428 284.743C87.5644 283.961 87.4252 283.016 87.4252 281.909C87.4252 280.809 87.5644 279.869 87.8428 279.09C88.1246 278.308 88.5289 277.711 89.0559 277.3C89.5862 276.886 90.2226 276.679 90.965 276.679C91.7074 276.679 92.3421 276.886 92.8691 277.3C93.3994 277.711 93.8038 278.308 94.0822 279.09C94.3639 279.869 94.5048 280.809 94.5048 281.909C94.5048 283.016 94.3656 283.961 94.0872 284.743C93.8087 285.522 93.406 286.117 92.8791 286.528C92.3521 286.935 91.714 287.139 90.965 287.139ZM90.965 286.045C91.7074 286.045 92.2841 285.687 92.6951 284.972C93.1061 284.256 93.3116 283.235 93.3116 281.909C93.3116 281.027 93.2171 280.277 93.0282 279.657C92.8426 279.037 92.5741 278.565 92.2228 278.24C91.8748 277.915 91.4555 277.753 90.965 277.753C90.2292 277.753 89.6542 278.116 89.2399 278.842C88.8256 279.564 88.6184 280.587 88.6184 281.909C88.6184 282.791 88.7112 283.54 88.8968 284.156C89.0824 284.773 89.3492 285.242 89.6972 285.563C90.0486 285.885 90.4712 286.045 90.965 286.045ZM99.295 287.139C98.5459 287.139 97.9079 286.935 97.3809 286.528C96.8539 286.117 96.4512 285.522 96.1728 284.743C95.8944 283.961 95.7552 283.016 95.7552 281.909C95.7552 280.809 95.8944 279.869 96.1728 279.09C96.4546 278.308 96.8589 277.711 97.3859 277.3C97.9162 276.886 98.5526 276.679 99.295 276.679C100.037 276.679 100.672 276.886 101.199 277.3C101.729 277.711 102.134 278.308 102.412 279.09C102.694 279.869 102.835 280.809 102.835 281.909C102.835 283.016 102.696 283.961 102.417 284.743C102.139 285.522 101.736 286.117 101.209 286.528C100.682 286.935 100.044 287.139 99.295 287.139ZM99.295 286.045C100.037 286.045 100.614 285.687 101.025 284.972C101.436 284.256 101.642 283.235 101.642 281.909C101.642 281.027 101.547 280.277 101.358 279.657C101.173 279.037 100.904 278.565 100.553 278.24C100.205 277.915 99.7855 277.753 99.295 277.753C98.5592 277.753 97.9842 278.116 97.5699 278.842C97.1556 279.564 96.9484 280.587 96.9484 281.909C96.9484 282.791 97.0412 283.54 97.2268 284.156C97.4124 284.773 97.6792 285.242 98.0272 285.563C98.3786 285.885 98.8012 286.045 99.295 286.045ZM107.625 287.139C106.876 287.139 106.238 286.935 105.711 286.528C105.184 286.117 104.781 285.522 104.503 284.743C104.224 283.961 104.085 283.016 104.085 281.909C104.085 280.809 104.224 279.869 104.503 279.09C104.785 278.308 105.189 277.711 105.716 277.3C106.246 276.886 106.883 276.679 107.625 276.679C108.367 276.679 109.002 276.886 109.529 277.3C110.059 277.711 110.464 278.308 110.742 279.09C111.024 279.869 111.165 280.809 111.165 281.909C111.165 283.016 111.026 283.961 110.747 284.743C110.469 285.522 110.066 286.117 109.539 286.528C109.012 286.935 108.374 287.139 107.625 287.139ZM107.625 286.045C108.367 286.045 108.944 285.687 109.355 284.972C109.766 284.256 109.972 283.235 109.972 281.909C109.972 281.027 109.877 280.277 109.688 279.657C109.503 279.037 109.234 278.565 108.883 278.24C108.535 277.915 108.116 277.753 107.625 277.753C106.889 277.753 106.314 278.116 105.9 278.842C105.486 279.564 105.278 280.587 105.278 281.909C105.278 282.791 105.371 283.54 105.557 284.156C105.742 284.773 106.009 285.242 106.357 285.563C106.709 285.885 107.131 286.045 107.625 286.045Z" fill="#232323"/>
<path d="M37.247 384.273V371.545H38.0623V384.273H37.247ZM39.9913 375.364C39.9316 374.86 39.6897 374.469 39.2654 374.19C38.8412 373.912 38.3208 373.773 37.7044 373.773C37.2536 373.773 36.8592 373.846 36.5211 373.991C36.1864 374.137 35.9245 374.338 35.7356 374.593C35.55 374.848 35.4572 375.138 35.4572 375.463C35.4572 375.735 35.5218 375.969 35.6511 376.164C35.7837 376.356 35.9527 376.517 36.1582 376.646C36.3637 376.772 36.5791 376.877 36.8045 376.96C37.0299 377.039 37.237 377.104 37.426 377.153L38.46 377.432C38.7252 377.501 39.0202 377.598 39.345 377.72C39.6731 377.843 39.9863 378.01 40.2846 378.222C40.5862 378.431 40.8348 378.7 41.0304 379.028C41.2259 379.356 41.3237 379.759 41.3237 380.236C41.3237 380.786 41.1795 381.283 40.8911 381.727C40.6061 382.171 40.1885 382.524 39.6383 382.786C39.0914 383.048 38.4269 383.179 37.6447 383.179C36.9155 383.179 36.2841 383.061 35.7505 382.826C35.2202 382.591 34.8026 382.263 34.4977 381.842C34.1961 381.421 34.0254 380.932 33.9856 380.375H35.2583C35.2915 380.759 35.4207 381.078 35.6461 381.33C35.8748 381.578 36.1632 381.764 36.5112 381.886C36.8625 382.006 37.2403 382.065 37.6447 382.065C38.1153 382.065 38.5379 381.989 38.9125 381.837C39.287 381.681 39.5836 381.465 39.8024 381.19C40.0211 380.912 40.1305 380.587 40.1305 380.216C40.1305 379.878 40.036 379.603 39.8471 379.391C39.6582 379.179 39.4096 379.006 39.1014 378.874C38.7931 378.741 38.46 378.625 38.1021 378.526L36.8492 378.168C36.0538 377.939 35.4241 377.612 34.96 377.188C34.496 376.764 34.264 376.209 34.264 375.523C34.264 374.953 34.4181 374.455 34.7264 374.031C35.0379 373.604 35.4555 373.272 35.9792 373.037C36.5062 372.798 37.0945 372.679 37.7441 372.679C38.4004 372.679 38.9837 372.797 39.4941 373.032C40.0045 373.264 40.4089 373.582 40.7072 373.987C41.0088 374.391 41.1679 374.85 41.1845 375.364H39.9913ZM45.9933 372.679C46.411 372.682 46.8286 372.762 47.2462 372.918C47.6638 373.073 48.045 373.332 48.3897 373.693C48.7343 374.051 49.0111 374.54 49.2199 375.16C49.4287 375.78 49.5331 376.557 49.5331 377.491C49.5331 378.396 49.4469 379.2 49.2746 379.903C49.1056 380.602 48.8603 381.192 48.5388 381.673C48.2206 382.153 47.8328 382.518 47.3754 382.766C46.9214 383.015 46.4076 383.139 45.8343 383.139C45.2642 383.139 44.7554 383.027 44.308 382.801C43.8638 382.572 43.4993 382.256 43.2142 381.852C42.9325 381.444 42.7519 380.972 42.6723 380.435H43.8854C43.9948 380.902 44.2119 381.288 44.5367 381.593C44.8648 381.895 45.2973 382.045 45.8343 382.045C46.6198 382.045 47.2396 381.702 47.6936 381.016C48.151 380.33 48.3797 379.361 48.3797 378.108H48.3002C48.1146 378.386 47.8941 378.627 47.6389 378.829C47.3837 379.031 47.1004 379.187 46.7888 379.296C46.4772 379.406 46.1458 379.46 45.7945 379.46C45.2111 379.46 44.6759 379.316 44.1887 379.028C43.7048 378.736 43.317 378.337 43.0253 377.83C42.737 377.319 42.5928 376.736 42.5928 376.08C42.5928 375.456 42.732 374.886 43.0104 374.369C43.2921 373.849 43.6865 373.435 44.1936 373.126C44.704 372.818 45.3039 372.669 45.9933 372.679ZM45.9933 373.773C45.5757 373.773 45.1995 373.877 44.8648 374.086C44.5334 374.291 44.2699 374.57 44.0743 374.921C43.8821 375.269 43.786 375.655 43.786 376.08C43.786 376.504 43.8788 376.89 44.0644 377.238C44.2533 377.583 44.5102 377.858 44.835 378.063C45.1631 378.265 45.536 378.366 45.9536 378.366C46.2684 378.366 46.5618 378.305 46.8335 378.183C47.1053 378.057 47.3423 377.886 47.5445 377.67C47.75 377.452 47.9107 377.205 48.0267 376.93C48.1427 376.651 48.2007 376.361 48.2007 376.06C48.2007 375.662 48.1046 375.289 47.9124 374.941C47.7235 374.593 47.4616 374.311 47.1269 374.096C46.7954 373.88 46.4176 373.773 45.9933 373.773ZM52.4826 381.608L52.4031 382.145C52.3467 382.523 52.2605 382.927 52.1445 383.358C52.0319 383.789 51.9142 384.195 51.7916 384.576C51.6689 384.957 51.5678 385.26 51.4883 385.486H50.5934C50.6365 385.274 50.6928 384.994 50.7624 384.646C50.832 384.298 50.9016 383.908 50.9712 383.477C51.0442 383.05 51.1038 382.612 51.1502 382.165L51.2099 381.608H52.4826ZM57.1821 383.139C56.4331 383.139 55.795 382.935 55.268 382.528C54.7411 382.117 54.3384 381.522 54.0599 380.743C53.7815 379.961 53.6423 379.016 53.6423 377.909C53.6423 376.809 53.7815 375.869 54.0599 375.09C54.3417 374.308 54.746 373.711 55.273 373.3C55.8033 372.886 56.4397 372.679 57.1821 372.679C57.9245 372.679 58.5592 372.886 59.0862 373.3C59.6165 373.711 60.0209 374.308 60.2993 375.09C60.581 375.869 60.7219 376.809 60.7219 377.909C60.7219 379.016 60.5827 379.961 60.3043 380.743C60.0259 381.522 59.6232 382.117 59.0962 382.528C58.5692 382.935 57.9312 383.139 57.1821 383.139ZM57.1821 382.045C57.9245 382.045 58.5012 381.687 58.9122 380.972C59.3232 380.256 59.5287 379.235 59.5287 377.909C59.5287 377.027 59.4342 376.277 59.2453 375.657C59.0597 375.037 58.7912 374.565 58.4399 374.24C58.0919 373.915 57.6726 373.753 57.1821 373.753C56.4463 373.753 55.8713 374.116 55.457 374.842C55.0427 375.564 54.8355 376.587 54.8355 377.909C54.8355 378.791 54.9283 379.54 55.1139 380.156C55.2995 380.773 55.5663 381.242 55.9144 381.563C56.2657 381.885 56.6883 382.045 57.1821 382.045ZM65.5121 383.139C64.7631 383.139 64.125 382.935 63.598 382.528C63.0711 382.117 62.6684 381.522 62.3899 380.743C62.1115 379.961 61.9723 379.016 61.9723 377.909C61.9723 376.809 62.1115 375.869 62.3899 375.09C62.6717 374.308 63.076 373.711 63.603 373.3C64.1333 372.886 64.7697 372.679 65.5121 372.679C66.2545 372.679 66.8892 372.886 67.4162 373.3C67.9465 373.711 68.3509 374.308 68.6293 375.09C68.911 375.869 69.0519 376.809 69.0519 377.909C69.0519 379.016 68.9127 379.961 68.6343 380.743C68.3559 381.522 67.9532 382.117 67.4262 382.528C66.8992 382.935 66.2612 383.139 65.5121 383.139ZM65.5121 382.045C66.2545 382.045 66.8312 381.687 67.2422 380.972C67.6532 380.256 67.8587 379.235 67.8587 377.909C67.8587 377.027 67.7642 376.277 67.5753 375.657C67.3897 375.037 67.1212 374.565 66.7699 374.24C66.4219 373.915 66.0026 373.753 65.5121 373.753C64.7763 373.753 64.2013 374.116 63.787 374.842C63.3727 375.564 63.1655 376.587 63.1655 377.909C63.1655 378.791 63.2583 379.54 63.4439 380.156C63.6295 380.773 63.8963 381.242 64.2444 381.563C64.5957 381.885 65.0183 382.045 65.5121 382.045ZM73.8421 383.139C73.0931 383.139 72.455 382.935 71.928 382.528C71.4011 382.117 70.9984 381.522 70.72 380.743C70.4415 379.961 70.3023 379.016 70.3023 377.909C70.3023 376.809 70.4415 375.869 70.72 375.09C71.0017 374.308 71.406 373.711 71.933 373.3C72.4633 372.886 73.0997 372.679 73.8421 372.679C74.5845 372.679 75.2192 372.886 75.7462 373.3C76.2765 373.711 76.6809 374.308 76.9593 375.09C77.241 375.869 77.3819 376.809 77.3819 377.909C77.3819 379.016 77.2427 379.961 76.9643 380.743C76.6859 381.522 76.2832 382.117 75.7562 382.528C75.2292 382.935 74.5912 383.139 73.8421 383.139ZM73.8421 382.045C74.5845 382.045 75.1612 381.687 75.5722 380.972C75.9832 380.256 76.1887 379.235 76.1887 377.909C76.1887 377.027 76.0942 376.277 75.9053 375.657C75.7197 375.037 75.4512 374.565 75.0999 374.24C74.7519 373.915 74.3326 373.753 73.8421 373.753C73.1063 373.753 72.5313 374.116 72.117 374.842C71.7027 375.564 71.4955 376.587 71.4955 377.909C71.4955 378.791 71.5883 379.54 71.7739 380.156C71.9595 380.773 72.2263 381.242 72.5744 381.563C72.9257 381.885 73.3483 382.045 73.8421 382.045ZM80.2655 381.608L80.186 382.145C80.1296 382.523 80.0434 382.927 79.9274 383.358C79.8147 383.789 79.6971 384.195 79.5745 384.576C79.4518 384.957 79.3507 385.26 79.2712 385.486H78.3763C78.4194 385.274 78.4757 384.994 78.5453 384.646C78.6149 384.298 78.6845 383.908 78.7541 383.477C78.8271 383.05 78.8867 382.612 78.9331 382.165L78.9928 381.608H80.2655ZM84.965 383.139C84.2159 383.139 83.5779 382.935 83.0509 382.528C82.5239 382.117 82.1213 381.522 81.8428 380.743C81.5644 379.961 81.4252 379.016 81.4252 377.909C81.4252 376.809 81.5644 375.869 81.8428 375.09C82.1246 374.308 82.5289 373.711 83.0559 373.3C83.5862 372.886 84.2226 372.679 84.965 372.679C85.7074 372.679 86.3421 372.886 86.8691 373.3C87.3994 373.711 87.8038 374.308 88.0822 375.09C88.3639 375.869 88.5048 376.809 88.5048 377.909C88.5048 379.016 88.3656 379.961 88.0872 380.743C87.8088 381.522 87.4061 382.117 86.8791 382.528C86.3521 382.935 85.7141 383.139 84.965 383.139ZM84.965 382.045C85.7074 382.045 86.2841 381.687 86.6951 380.972C87.1061 380.256 87.3116 379.235 87.3116 377.909C87.3116 377.027 87.2171 376.277 87.0282 375.657C86.8426 375.037 86.5741 374.565 86.2228 374.24C85.8748 373.915 85.4555 373.753 84.965 373.753C84.2292 373.753 83.6542 374.116 83.2399 374.842C82.8256 375.564 82.6184 376.587 82.6184 377.909C82.6184 378.791 82.7112 379.54 82.8968 380.156C83.0824 380.773 83.3492 381.242 83.6972 381.563C84.0486 381.885 84.4712 382.045 84.965 382.045ZM93.295 383.139C92.5459 383.139 91.9079 382.935 91.3809 382.528C90.8539 382.117 90.4512 381.522 90.1728 380.743C89.8944 379.961 89.7552 379.016 89.7552 377.909C89.7552 376.809 89.8944 375.869 90.1728 375.09C90.4546 374.308 90.8589 373.711 91.3859 373.3C91.9162 372.886 92.5526 372.679 93.295 372.679C94.0374 372.679 94.6721 372.886 95.1991 373.3C95.7294 373.711 96.1338 374.308 96.4122 375.09C96.6939 375.869 96.8348 376.809 96.8348 377.909C96.8348 379.016 96.6956 379.961 96.4172 380.743C96.1387 381.522 95.736 382.117 95.2091 382.528C94.6821 382.935 94.0441 383.139 93.295 383.139ZM93.295 382.045C94.0374 382.045 94.6141 381.687 95.0251 380.972C95.4361 380.256 95.6416 379.235 95.6416 377.909C95.6416 377.027 95.5471 376.277 95.3582 375.657C95.1726 375.037 94.9041 374.565 94.5528 374.24C94.2048 373.915 93.7855 373.753 93.295 373.753C92.5592 373.753 91.9842 374.116 91.5699 374.842C91.1556 375.564 90.9484 376.587 90.9484 377.909C90.9484 378.791 91.0412 379.54 91.2268 380.156C91.4124 380.773 91.6792 381.242 92.0272 381.563C92.3786 381.885 92.8012 382.045 93.295 382.045ZM101.625 383.139C100.876 383.139 100.238 382.935 99.7109 382.528C99.1839 382.117 98.7813 381.522 98.5028 380.743C98.2244 379.961 98.0852 379.016 98.0852 377.909C98.0852 376.809 98.2244 375.869 98.5028 375.09C98.7846 374.308 99.1889 373.711 99.7159 373.3C100.246 372.886 100.883 372.679 101.625 372.679C102.367 372.679 103.002 372.886 103.529 373.3C104.059 373.711 104.464 374.308 104.742 375.09C105.024 375.869 105.165 376.809 105.165 377.909C105.165 379.016 105.026 379.961 104.747 380.743C104.469 381.522 104.066 382.117 103.539 382.528C103.012 382.935 102.374 383.139 101.625 383.139ZM101.625 382.045C102.367 382.045 102.944 381.687 103.355 380.972C103.766 380.256 103.972 379.235 103.972 377.909C103.972 377.027 103.877 376.277 103.688 375.657C103.503 375.037 103.234 374.565 102.883 374.24C102.535 373.915 102.116 373.753 101.625 373.753C100.889 373.753 100.314 374.116 99.8999 374.842C99.4856 375.564 99.2784 376.587 99.2784 377.909C99.2784 378.791 99.3712 379.54 99.5568 380.156C99.7424 380.773 100.009 381.242 100.357 381.563C100.709 381.885 101.131 382.045 101.625 382.045Z" fill="#232323"/>
<path d="M37.6338 192.273V179.545H38.4491V192.273H37.6338ZM40.3781 183.364C40.3184 182.86 40.0765 182.469 39.6522 182.19C39.228 181.912 38.7076 181.773 38.0912 181.773C37.6404 181.773 37.246 181.846 36.9079 181.991C36.5732 182.137 36.3113 182.338 36.1224 182.593C35.9368 182.848 35.844 183.138 35.844 183.463C35.844 183.735 35.9086 183.969 36.0379 184.164C36.1705 184.356 36.3395 184.517 36.545 184.646C36.7505 184.772 36.9659 184.877 37.1913 184.96C37.4167 185.039 37.6238 185.104 37.8127 185.153L38.8468 185.432C39.112 185.501 39.407 185.598 39.7318 185.72C40.0599 185.843 40.3731 186.01 40.6714 186.222C40.973 186.431 41.2216 186.7 41.4171 187.028C41.6127 187.356 41.7105 187.759 41.7105 188.236C41.7105 188.786 41.5663 189.283 41.2779 189.727C40.9929 190.171 40.5753 190.524 40.0251 190.786C39.4782 191.048 38.8137 191.179 38.0315 191.179C37.3023 191.179 36.6709 191.061 36.1373 190.826C35.607 190.591 35.1894 190.263 34.8845 189.842C34.5829 189.421 34.4122 188.932 34.3724 188.375H35.6451C35.6783 188.759 35.8075 189.078 36.0329 189.33C36.2616 189.578 36.55 189.764 36.898 189.886C37.2493 190.006 37.6271 190.065 38.0315 190.065C38.5021 190.065 38.9247 189.989 39.2993 189.837C39.6738 189.681 39.9704 189.465 40.1892 189.19C40.4079 188.912 40.5173 188.587 40.5173 188.216C40.5173 187.878 40.4228 187.603 40.2339 187.391C40.045 187.179 39.7964 187.006 39.4882 186.874C39.1799 186.741 38.8468 186.625 38.4889 186.526L37.236 186.168C36.4406 185.939 35.8109 185.612 35.3468 185.188C34.8828 184.764 34.6508 184.209 34.6508 183.523C34.6508 182.953 34.8049 182.455 35.1132 182.031C35.4247 181.604 35.8423 181.272 36.366 181.037C36.893 180.798 37.4813 180.679 38.1309 180.679C38.7872 180.679 39.3705 180.797 39.8809 181.032C40.3913 181.264 40.7957 181.582 41.094 181.987C41.3956 182.391 41.5547 182.85 41.5713 183.364H40.3781ZM46.7182 180.818V191H45.4853V182.111H45.4256L42.9398 183.761V182.509L45.4853 180.818H46.7182ZM52.806 180.818V191H51.5731V182.111H51.5134L49.0276 183.761V182.509L51.5731 180.818H52.806ZM56.4826 189.608L56.4031 190.145C56.3467 190.523 56.2605 190.927 56.1445 191.358C56.0319 191.789 55.9142 192.195 55.7916 192.576C55.6689 192.957 55.5678 193.26 55.4883 193.486H54.5934C54.6365 193.274 54.6928 192.994 54.7624 192.646C54.832 192.298 54.9016 191.908 54.9712 191.477C55.0442 191.05 55.1038 190.612 55.1502 190.165L55.2099 189.608H56.4826ZM61.1821 191.139C60.4331 191.139 59.795 190.935 59.268 190.528C58.7411 190.117 58.3384 189.522 58.0599 188.743C57.7815 187.961 57.6423 187.016 57.6423 185.909C57.6423 184.809 57.7815 183.869 58.0599 183.09C58.3417 182.308 58.746 181.711 59.273 181.3C59.8033 180.886 60.4397 180.679 61.1821 180.679C61.9245 180.679 62.5592 180.886 63.0862 181.3C63.6165 181.711 64.0209 182.308 64.2993 183.09C64.581 183.869 64.7219 184.809 64.7219 185.909C64.7219 187.016 64.5827 187.961 64.3043 188.743C64.0259 189.522 63.6232 190.117 63.0962 190.528C62.5692 190.935 61.9312 191.139 61.1821 191.139ZM61.1821 190.045C61.9245 190.045 62.5012 189.687 62.9122 188.972C63.3232 188.256 63.5287 187.235 63.5287 185.909C63.5287 185.027 63.4342 184.277 63.2453 183.657C63.0597 183.037 62.7912 182.565 62.4399 182.24C62.0919 181.915 61.6726 181.753 61.1821 181.753C60.4463 181.753 59.8713 182.116 59.457 182.842C59.0427 183.564 58.8355 184.587 58.8355 185.909C58.8355 186.791 58.9283 187.54 59.1139 188.156C59.2995 188.773 59.5663 189.242 59.9144 189.563C60.2657 189.885 60.6883 190.045 61.1821 190.045ZM69.5121 191.139C68.7631 191.139 68.125 190.935 67.598 190.528C67.0711 190.117 66.6684 189.522 66.3899 188.743C66.1115 187.961 65.9723 187.016 65.9723 185.909C65.9723 184.809 66.1115 183.869 66.3899 183.09C66.6717 182.308 67.076 181.711 67.603 181.3C68.1333 180.886 68.7697 180.679 69.5121 180.679C70.2545 180.679 70.8892 180.886 71.4162 181.3C71.9465 181.711 72.3509 182.308 72.6293 183.09C72.911 183.869 73.0519 184.809 73.0519 185.909C73.0519 187.016 72.9127 187.961 72.6343 188.743C72.3559 189.522 71.9532 190.117 71.4262 190.528C70.8992 190.935 70.2612 191.139 69.5121 191.139ZM69.5121 190.045C70.2545 190.045 70.8312 189.687 71.2422 188.972C71.6532 188.256 71.8587 187.235 71.8587 185.909C71.8587 185.027 71.7642 184.277 71.5753 183.657C71.3897 183.037 71.1212 182.565 70.7699 182.24C70.4219 181.915 70.0026 181.753 69.5121 181.753C68.7763 181.753 68.2013 182.116 67.787 182.842C67.3727 183.564 67.1655 184.587 67.1655 185.909C67.1655 186.791 67.2583 187.54 67.4439 188.156C67.6295 188.773 67.8963 189.242 68.2444 189.563C68.5957 189.885 69.0183 190.045 69.5121 190.045ZM77.8421 191.139C77.0931 191.139 76.455 190.935 75.928 190.528C75.4011 190.117 74.9984 189.522 74.7199 188.743C74.4415 187.961 74.3023 187.016 74.3023 185.909C74.3023 184.809 74.4415 183.869 74.7199 183.09C75.0017 182.308 75.406 181.711 75.933 181.3C76.4633 180.886 77.0997 180.679 77.8421 180.679C78.5845 180.679 79.2192 180.886 79.7462 181.3C80.2765 181.711 80.6809 182.308 80.9593 183.09C81.241 183.869 81.3819 184.809 81.3819 185.909C81.3819 187.016 81.2427 187.961 80.9643 188.743C80.6859 189.522 80.2832 190.117 79.7562 190.528C79.2292 190.935 78.5912 191.139 77.8421 191.139ZM77.8421 190.045C78.5845 190.045 79.1612 189.687 79.5722 188.972C79.9832 188.256 80.1887 187.235 80.1887 185.909C80.1887 185.027 80.0942 184.277 79.9053 183.657C79.7197 183.037 79.4512 182.565 79.0999 182.24C78.7519 181.915 78.3326 181.753 77.8421 181.753C77.1063 181.753 76.5313 182.116 76.117 182.842C75.7027 183.564 75.4955 184.587 75.4955 185.909C75.4955 186.791 75.5883 187.54 75.7739 188.156C75.9595 188.773 76.2263 189.242 76.5744 189.563C76.9257 189.885 77.3483 190.045 77.8421 190.045ZM84.2655 189.608L84.186 190.145C84.1296 190.523 84.0434 190.927 83.9274 191.358C83.8147 191.789 83.6971 192.195 83.5745 192.576C83.4518 192.957 83.3507 193.26 83.2712 193.486H82.3763C82.4194 193.274 82.4757 192.994 82.5453 192.646C82.6149 192.298 82.6845 191.908 82.7541 191.477C82.8271 191.05 82.8867 190.612 82.9331 190.165L82.9928 189.608H84.2655ZM88.965 191.139C88.2159 191.139 87.5779 190.935 87.0509 190.528C86.5239 190.117 86.1212 189.522 85.8428 188.743C85.5644 187.961 85.4252 187.016 85.4252 185.909C85.4252 184.809 85.5644 183.869 85.8428 183.09C86.1246 182.308 86.5289 181.711 87.0559 181.3C87.5862 180.886 88.2226 180.679 88.965 180.679C89.7074 180.679 90.3421 180.886 90.8691 181.3C91.3994 181.711 91.8038 182.308 92.0822 183.09C92.3639 183.869 92.5048 184.809 92.5048 185.909C92.5048 187.016 92.3656 187.961 92.0872 188.743C91.8087 189.522 91.406 190.117 90.8791 190.528C90.3521 190.935 89.714 191.139 88.965 191.139ZM88.965 190.045C89.7074 190.045 90.2841 189.687 90.6951 188.972C91.1061 188.256 91.3116 187.235 91.3116 185.909C91.3116 185.027 91.2171 184.277 91.0282 183.657C90.8426 183.037 90.5741 182.565 90.2228 182.24C89.8748 181.915 89.4555 181.753 88.965 181.753C88.2292 181.753 87.6542 182.116 87.2399 182.842C86.8256 183.564 86.6184 184.587 86.6184 185.909C86.6184 186.791 86.7112 187.54 86.8968 188.156C87.0824 188.773 87.3492 189.242 87.6972 189.563C88.0486 189.885 88.4712 190.045 88.965 190.045ZM97.295 191.139C96.5459 191.139 95.9079 190.935 95.3809 190.528C94.8539 190.117 94.4512 189.522 94.1728 188.743C93.8944 187.961 93.7552 187.016 93.7552 185.909C93.7552 184.809 93.8944 183.869 94.1728 183.09C94.4546 182.308 94.8589 181.711 95.3859 181.3C95.9162 180.886 96.5526 180.679 97.295 180.679C98.0374 180.679 98.6721 180.886 99.1991 181.3C99.7294 181.711 100.134 182.308 100.412 183.09C100.694 183.869 100.835 184.809 100.835 185.909C100.835 187.016 100.696 187.961 100.417 188.743C100.139 189.522 99.736 190.117 99.2091 190.528C98.6821 190.935 98.0441 191.139 97.295 191.139ZM97.295 190.045C98.0374 190.045 98.6141 189.687 99.0251 188.972C99.4361 188.256 99.6416 187.235 99.6416 185.909C99.6416 185.027 99.5471 184.277 99.3582 183.657C99.1726 183.037 98.9041 182.565 98.5528 182.24C98.2048 181.915 97.7855 181.753 97.295 181.753C96.5592 181.753 95.9842 182.116 95.5699 182.842C95.1556 183.564 94.9484 184.587 94.9484 185.909C94.9484 186.791 95.0412 187.54 95.2268 188.156C95.4124 188.773 95.6792 189.242 96.0272 189.563C96.3786 189.885 96.8012 190.045 97.295 190.045ZM105.625 191.139C104.876 191.139 104.238 190.935 103.711 190.528C103.184 190.117 102.781 189.522 102.503 188.743C102.224 187.961 102.085 187.016 102.085 185.909C102.085 184.809 102.224 183.869 102.503 183.09C102.785 182.308 103.189 181.711 103.716 181.3C104.246 180.886 104.883 180.679 105.625 180.679C106.367 180.679 107.002 180.886 107.529 181.3C108.059 181.711 108.464 182.308 108.742 183.09C109.024 183.869 109.165 184.809 109.165 185.909C109.165 187.016 109.026 187.961 108.747 188.743C108.469 189.522 108.066 190.117 107.539 190.528C107.012 190.935 106.374 191.139 105.625 191.139ZM105.625 190.045C106.367 190.045 106.944 189.687 107.355 188.972C107.766 188.256 107.972 187.235 107.972 185.909C107.972 185.027 107.877 184.277 107.688 183.657C107.503 183.037 107.234 182.565 106.883 182.24C106.535 181.915 106.116 181.753 105.625 181.753C104.889 181.753 104.314 182.116 103.9 182.842C103.486 183.564 103.278 184.587 103.278 185.909C103.278 186.791 103.371 187.54 103.557 188.156C103.742 188.773 104.009 189.242 104.357 189.563C104.709 189.885 105.131 190.045 105.625 190.045Z" fill="#232323"/>
<path d="M37.0635 96.2727V83.5455H37.8788V96.2727H37.0635ZM39.8078 87.3636C39.7481 86.8598 39.5062 86.4688 39.0819 86.1903C38.6577 85.9119 38.1373 85.7727 37.5208 85.7727C37.0701 85.7727 36.6757 85.8456 36.3376 85.9915C36.0028 86.1373 35.741 86.3378 35.5521 86.593C35.3665 86.8482 35.2737 87.1383 35.2737 87.4631C35.2737 87.7348 35.3383 87.9685 35.4676 88.1641C35.6002 88.3563 35.7692 88.517 35.9747 88.6463C36.1802 88.7723 36.3956 88.8767 36.621 88.9595C36.8464 89.0391 37.0535 89.1037 37.2424 89.1534L38.2765 89.4318C38.5417 89.5014 38.8367 89.5975 39.1615 89.7202C39.4896 89.8428 39.8028 90.0102 40.1011 90.2223C40.4027 90.4311 40.6513 90.6996 40.8468 91.0277C41.0424 91.3558 41.1402 91.7585 41.1402 92.2358C41.1402 92.786 40.996 93.2831 40.7076 93.7273C40.4226 94.1714 40.005 94.5244 39.4548 94.7862C38.9079 95.0481 38.2434 95.179 37.4612 95.179C36.732 95.179 36.1006 95.0613 35.567 94.826C35.0367 94.5907 34.6191 94.2625 34.3142 93.8416C34.0126 93.4207 33.8419 92.9318 33.8021 92.375H35.0748C35.108 92.7595 35.2372 93.0777 35.4626 93.3295C35.6913 93.5781 35.9796 93.7637 36.3277 93.8864C36.679 94.0057 37.0568 94.0653 37.4612 94.0653C37.9318 94.0653 38.3544 93.9891 38.7289 93.8366C39.1035 93.6809 39.4001 93.4654 39.6189 93.1903C39.8376 92.9119 39.947 92.5871 39.947 92.2159C39.947 91.8778 39.8525 91.6027 39.6636 91.3906C39.4747 91.1785 39.2261 91.0062 38.9179 90.8736C38.6096 90.741 38.2765 90.625 37.9186 90.5256L36.6657 90.1676C35.8703 89.9389 35.2405 89.6125 34.7765 89.1882C34.3125 88.764 34.0805 88.2088 34.0805 87.5227C34.0805 86.9527 34.2346 86.4555 34.5429 86.0312C34.8544 85.6037 35.272 85.2723 35.7957 85.0369C36.3227 84.7983 36.911 84.679 37.5606 84.679C38.2169 84.679 38.8002 84.7966 39.3106 85.032C39.821 85.264 40.2254 85.5821 40.5237 85.9865C40.8253 86.3909 40.9844 86.8499 41.001 87.3636H39.8078ZM46.1479 84.8182V95H44.9149V86.1108H44.8553L42.3695 87.7614V86.5085L44.9149 84.8182H46.1479ZM48.6562 95V94.1051L52.017 90.4261C52.4114 89.9953 52.7362 89.6207 52.9914 89.3026C53.2466 88.9811 53.4355 88.6795 53.5582 88.3977C53.6841 88.1127 53.7471 87.8144 53.7471 87.5028C53.7471 87.1449 53.6609 86.835 53.4885 86.5732C53.3195 86.3113 53.0875 86.1091 52.7925 85.9666C52.4975 85.8241 52.1661 85.7528 51.7982 85.7528C51.4071 85.7528 51.0657 85.834 50.7741 85.9964C50.4857 86.1555 50.262 86.3793 50.1029 86.6676C49.9471 86.956 49.8692 87.294 49.8692 87.6818H48.6959C48.6959 87.0852 48.8335 86.5616 49.1086 86.1108C49.3837 85.66 49.7582 85.3087 50.2322 85.0568C50.7094 84.8049 51.2447 84.679 51.838 84.679C52.4346 84.679 52.9632 84.8049 53.4239 85.0568C53.8846 85.3087 54.2459 85.6484 54.5077 86.076C54.7696 86.5036 54.9005 86.9792 54.9005 87.5028C54.9005 87.8774 54.8325 88.2436 54.6966 88.6016C54.5641 88.9562 54.3321 89.3523 54.0006 89.7898C53.6725 90.224 53.2168 90.7543 52.6334 91.3807L50.3465 93.8267V93.9062H55.0795V95H48.6562ZM58.4826 93.608L58.4031 94.1449C58.3467 94.5227 58.2605 94.9271 58.1445 95.358C58.0319 95.7888 57.9142 96.1948 57.7916 96.576C57.6689 96.9571 57.5678 97.2604 57.4883 97.4858H56.5934C56.6365 97.2737 56.6928 96.9936 56.7624 96.6456C56.832 96.2976 56.9016 95.9081 56.9712 95.4773C57.0442 95.0497 57.1038 94.6122 57.1502 94.1648L57.2099 93.608H58.4826ZM63.1821 95.1392C62.4331 95.1392 61.795 94.9354 61.268 94.5277C60.7411 94.1167 60.3384 93.5218 60.0599 92.7429C59.7815 91.9607 59.6423 91.0161 59.6423 89.9091C59.6423 88.8087 59.7815 87.8691 60.0599 87.0902C60.3417 86.308 60.746 85.7114 61.273 85.3004C61.8033 84.8861 62.4397 84.679 63.1821 84.679C63.9245 84.679 64.5592 84.8861 65.0862 85.3004C65.6165 85.7114 66.0209 86.308 66.2993 87.0902C66.581 87.8691 66.7219 88.8087 66.7219 89.9091C66.7219 91.0161 66.5827 91.9607 66.3043 92.7429C66.0259 93.5218 65.6232 94.1167 65.0962 94.5277C64.5692 94.9354 63.9312 95.1392 63.1821 95.1392ZM63.1821 94.0455C63.9245 94.0455 64.5012 93.6875 64.9122 92.9716C65.3232 92.2557 65.5287 91.2348 65.5287 89.9091C65.5287 89.0275 65.4342 88.2768 65.2453 87.657C65.0597 87.0372 64.7912 86.5649 64.4399 86.2401C64.0919 85.9152 63.6726 85.7528 63.1821 85.7528C62.4463 85.7528 61.8713 86.1158 61.457 86.8416C61.0427 87.5642 60.8355 88.5866 60.8355 89.9091C60.8355 90.7907 60.9283 91.5398 61.1139 92.1562C61.2995 92.7727 61.5663 93.2417 61.9144 93.5632C62.2657 93.8847 62.6883 94.0455 63.1821 94.0455ZM71.5121 95.1392C70.7631 95.1392 70.125 94.9354 69.598 94.5277C69.0711 94.1167 68.6684 93.5218 68.3899 92.7429C68.1115 91.9607 67.9723 91.0161 67.9723 89.9091C67.9723 88.8087 68.1115 87.8691 68.3899 87.0902C68.6717 86.308 69.076 85.7114 69.603 85.3004C70.1333 84.8861 70.7697 84.679 71.5121 84.679C72.2545 84.679 72.8892 84.8861 73.4162 85.3004C73.9465 85.7114 74.3509 86.308 74.6293 87.0902C74.911 87.8691 75.0519 88.8087 75.0519 89.9091C75.0519 91.0161 74.9127 91.9607 74.6343 92.7429C74.3559 93.5218 73.9532 94.1167 73.4262 94.5277C72.8992 94.9354 72.2612 95.1392 71.5121 95.1392ZM71.5121 94.0455C72.2545 94.0455 72.8312 93.6875 73.2422 92.9716C73.6532 92.2557 73.8587 91.2348 73.8587 89.9091C73.8587 89.0275 73.7642 88.2768 73.5753 87.657C73.3897 87.0372 73.1212 86.5649 72.7699 86.2401C72.4219 85.9152 72.0026 85.7528 71.5121 85.7528C70.7763 85.7528 70.2013 86.1158 69.787 86.8416C69.3727 87.5642 69.1655 88.5866 69.1655 89.9091C69.1655 90.7907 69.2583 91.5398 69.4439 92.1562C69.6295 92.7727 69.8963 93.2417 70.2444 93.5632C70.5957 93.8847 71.0183 94.0455 71.5121 94.0455ZM79.8421 95.1392C79.0931 95.1392 78.455 94.9354 77.928 94.5277C77.4011 94.1167 76.9984 93.5218 76.7199 92.7429C76.4415 91.9607 76.3023 91.0161 76.3023 89.9091C76.3023 88.8087 76.4415 87.8691 76.7199 87.0902C77.0017 86.308 77.406 85.7114 77.933 85.3004C78.4633 84.8861 79.0997 84.679 79.8421 84.679C80.5845 84.679 81.2192 84.8861 81.7462 85.3004C82.2765 85.7114 82.6809 86.308 82.9593 87.0902C83.241 87.8691 83.3819 88.8087 83.3819 89.9091C83.3819 91.0161 83.2427 91.9607 82.9643 92.7429C82.6859 93.5218 82.2832 94.1167 81.7562 94.5277C81.2292 94.9354 80.5912 95.1392 79.8421 95.1392ZM79.8421 94.0455C80.5845 94.0455 81.1612 93.6875 81.5722 92.9716C81.9832 92.2557 82.1887 91.2348 82.1887 89.9091C82.1887 89.0275 82.0942 88.2768 81.9053 87.657C81.7197 87.0372 81.4512 86.5649 81.0999 86.2401C80.7519 85.9152 80.3326 85.7528 79.8421 85.7528C79.1063 85.7528 78.5313 86.1158 78.117 86.8416C77.7027 87.5642 77.4955 88.5866 77.4955 89.9091C77.4955 90.7907 77.5883 91.5398 77.7739 92.1562C77.9595 92.7727 78.2263 93.2417 78.5744 93.5632C78.9257 93.8847 79.3483 94.0455 79.8421 94.0455ZM86.2655 93.608L86.186 94.1449C86.1296 94.5227 86.0434 94.9271 85.9274 95.358C85.8147 95.7888 85.6971 96.1948 85.5745 96.576C85.4518 96.9571 85.3507 97.2604 85.2712 97.4858H84.3763C84.4194 97.2737 84.4757 96.9936 84.5453 96.6456C84.6149 96.2976 84.6845 95.9081 84.7541 95.4773C84.8271 95.0497 84.8867 94.6122 84.9331 94.1648L84.9928 93.608H86.2655ZM90.965 95.1392C90.2159 95.1392 89.5779 94.9354 89.0509 94.5277C88.5239 94.1167 88.1212 93.5218 87.8428 92.7429C87.5644 91.9607 87.4252 91.0161 87.4252 89.9091C87.4252 88.8087 87.5644 87.8691 87.8428 87.0902C88.1246 86.308 88.5289 85.7114 89.0559 85.3004C89.5862 84.8861 90.2226 84.679 90.965 84.679C91.7074 84.679 92.3421 84.8861 92.8691 85.3004C93.3994 85.7114 93.8038 86.308 94.0822 87.0902C94.3639 87.8691 94.5048 88.8087 94.5048 89.9091C94.5048 91.0161 94.3656 91.9607 94.0872 92.7429C93.8087 93.5218 93.406 94.1167 92.8791 94.5277C92.3521 94.9354 91.714 95.1392 90.965 95.1392ZM90.965 94.0455C91.7074 94.0455 92.2841 93.6875 92.6951 92.9716C93.1061 92.2557 93.3116 91.2348 93.3116 89.9091C93.3116 89.0275 93.2171 88.2768 93.0282 87.657C92.8426 87.0372 92.5741 86.5649 92.2228 86.2401C91.8748 85.9152 91.4555 85.7528 90.965 85.7528C90.2292 85.7528 89.6542 86.1158 89.2399 86.8416C88.8256 87.5642 88.6184 88.5866 88.6184 89.9091C88.6184 90.7907 88.7112 91.5398 88.8968 92.1562C89.0824 92.7727 89.3492 93.2417 89.6972 93.5632C90.0486 93.8847 90.4712 94.0455 90.965 94.0455ZM99.295 95.1392C98.5459 95.1392 97.9079 94.9354 97.3809 94.5277C96.8539 94.1167 96.4512 93.5218 96.1728 92.7429C95.8944 91.9607 95.7552 91.0161 95.7552 89.9091C95.7552 88.8087 95.8944 87.8691 96.1728 87.0902C96.4546 86.308 96.8589 85.7114 97.3859 85.3004C97.9162 84.8861 98.5526 84.679 99.295 84.679C100.037 84.679 100.672 84.8861 101.199 85.3004C101.729 85.7114 102.134 86.308 102.412 87.0902C102.694 87.8691 102.835 88.8087 102.835 89.9091C102.835 91.0161 102.696 91.9607 102.417 92.7429C102.139 93.5218 101.736 94.1167 101.209 94.5277C100.682 94.9354 100.044 95.1392 99.295 95.1392ZM99.295 94.0455C100.037 94.0455 100.614 93.6875 101.025 92.9716C101.436 92.2557 101.642 91.2348 101.642 89.9091C101.642 89.0275 101.547 88.2768 101.358 87.657C101.173 87.0372 100.904 86.5649 100.553 86.2401C100.205 85.9152 99.7855 85.7528 99.295 85.7528C98.5592 85.7528 97.9842 86.1158 97.5699 86.8416C97.1556 87.5642 96.9484 88.5866 96.9484 89.9091C96.9484 90.7907 97.0412 91.5398 97.2268 92.1562C97.4124 92.7727 97.6792 93.2417 98.0272 93.5632C98.3786 93.8847 98.8012 94.0455 99.295 94.0455ZM107.625 95.1392C106.876 95.1392 106.238 94.9354 105.711 94.5277C105.184 94.1167 104.781 93.5218 104.503 92.7429C104.224 91.9607 104.085 91.0161 104.085 89.9091C104.085 88.8087 104.224 87.8691 104.503 87.0902C104.785 86.308 105.189 85.7114 105.716 85.3004C106.246 84.8861 106.883 84.679 107.625 84.679C108.367 84.679 109.002 84.8861 109.529 85.3004C110.059 85.7114 110.464 86.308 110.742 87.0902C111.024 87.8691 111.165 88.8087 111.165 89.9091C111.165 91.0161 111.026 91.9607 110.747 92.7429C110.469 93.5218 110.066 94.1167 109.539 94.5277C109.012 94.9354 108.374 95.1392 107.625 95.1392ZM107.625 94.0455C108.367 94.0455 108.944 93.6875 109.355 92.9716C109.766 92.2557 109.972 91.2348 109.972 89.9091C109.972 89.0275 109.877 88.2768 109.688 87.657C109.503 87.0372 109.234 86.5649 108.883 86.2401C108.535 85.9152 108.116 85.7528 107.625 85.7528C106.889 85.7528 106.314 86.1158 105.9 86.8416C105.486 87.5642 105.278 88.5866 105.278 89.9091C105.278 90.7907 105.371 91.5398 105.557 92.1562C105.742 92.7727 106.009 93.2417 106.357 93.5632C106.709 93.8847 107.131 94.0455 107.625 94.0455Z" fill="#232323"/>
<g filter="url(#filter0_dddd_551_739)">
<rect x="319" y="95" width="196" height="57.5041" rx="8.09917" fill="white"/>
</g>
<path d="M339.054 111.635V108.298H342.002V111.441C343.406 111.57 344.712 112.002 345.922 112.737V120.058C344.561 118.287 343.222 117.402 341.904 117.402C341.473 117.402 341.095 117.531 340.771 117.791C340.447 118.05 340.285 118.406 340.285 118.86C340.285 119.076 340.328 119.292 340.414 119.508C340.501 119.724 340.641 119.94 340.835 120.156C341.051 120.35 341.224 120.512 341.354 120.641C341.505 120.749 341.721 120.911 342.002 121.127C342.282 121.322 342.444 121.441 342.488 121.484C343.913 122.607 344.939 123.654 345.565 124.626C346.192 125.598 346.505 126.862 346.505 128.417C346.505 130.144 346.094 131.71 345.274 133.114C344.475 134.496 343.319 135.501 341.807 136.127V139.723H338.827V136.71C336.883 136.667 335.188 136.311 333.741 135.641V127.996C334.216 128.751 334.842 129.399 335.62 129.939C336.397 130.479 337.185 130.749 337.984 130.749C338.524 130.749 338.978 130.609 339.345 130.328C339.712 130.047 339.896 129.615 339.896 129.032C339.896 128.319 339.313 127.531 338.146 126.667C338.082 126.602 338.028 126.559 337.984 126.538C336.537 125.371 335.468 124.291 334.777 123.298C334.086 122.304 333.741 121.063 333.741 119.572C333.741 117.715 334.205 116.074 335.134 114.648C336.062 113.223 337.369 112.218 339.054 111.635ZM361.618 136.289H355.009V117.499H352.385V111.862H361.618V136.289ZM378.903 136.289H372.294V117.499H369.669V111.862H378.903V136.289ZM391.424 129.713L387.148 141.473H381.965L384.945 129.713H391.424ZM405.315 134.702C403.673 136.041 401.729 136.71 399.483 136.71C397.237 136.71 395.283 136.041 393.619 134.702C391.978 133.341 391.157 131.592 391.157 129.453C391.157 128.028 391.514 126.808 392.226 125.793C392.939 124.777 393.954 124.043 395.272 123.59V123.525C392.831 122.812 391.611 121.095 391.611 118.374C391.611 116.3 392.378 114.626 393.911 113.352C395.444 112.078 397.302 111.441 399.483 111.441C401.665 111.441 403.522 112.078 405.056 113.352C406.589 114.626 407.356 116.3 407.356 118.374C407.356 121.095 406.135 122.812 403.695 123.525V123.59C405.012 124.043 406.027 124.777 406.74 125.793C407.453 126.808 407.809 128.028 407.809 129.453C407.809 131.592 406.978 133.341 405.315 134.702ZM397.831 128.611C397.831 130.533 398.382 131.494 399.483 131.494C400.585 131.494 401.136 130.533 401.136 128.611C401.136 128.006 400.995 127.445 400.714 126.926C400.455 126.408 400.045 126.149 399.483 126.149C398.922 126.149 398.501 126.408 398.22 126.926C397.961 127.445 397.831 128.006 397.831 128.611ZM400.585 117.272C400.369 116.862 400.002 116.657 399.483 116.657C398.965 116.657 398.598 116.862 398.382 117.272C398.166 117.683 398.058 118.158 398.058 118.698C398.058 120.188 398.533 120.933 399.483 120.933C400.434 120.933 400.909 120.188 400.909 118.698C400.909 118.158 400.801 117.683 400.585 117.272ZM413.269 112.251C414.305 111.711 415.472 111.441 416.767 111.441C418.063 111.441 419.23 111.711 420.266 112.251C421.303 112.791 422.134 113.482 422.761 114.324C423.387 115.166 423.905 116.16 424.316 117.305C424.726 118.449 425.007 119.572 425.158 120.674C425.331 121.775 425.417 122.909 425.417 124.076C425.417 125.242 425.331 126.376 425.158 127.477C425.007 128.579 424.726 129.702 424.316 130.846C423.905 131.991 423.387 132.985 422.761 133.827C422.134 134.669 421.303 135.36 420.266 135.9C419.23 136.44 418.063 136.71 416.767 136.71C415.472 136.71 414.305 136.44 413.269 135.9C412.232 135.36 411.4 134.669 410.774 133.827C410.148 132.985 409.629 131.991 409.219 130.846C408.809 129.702 408.517 128.579 408.344 127.477C408.193 126.376 408.118 125.242 408.118 124.076C408.118 122.909 408.193 121.775 408.344 120.674C408.517 119.572 408.809 118.449 409.219 117.305C409.629 116.16 410.148 115.166 410.774 114.324C411.4 113.482 412.232 112.791 413.269 112.251ZM418.906 124.076C418.906 119.41 418.193 117.078 416.767 117.078C415.342 117.078 414.629 119.41 414.629 124.076C414.629 128.741 415.342 131.073 416.767 131.073C418.193 131.073 418.906 128.741 418.906 124.076ZM430.553 112.251C431.589 111.711 432.756 111.441 434.052 111.441C435.347 111.441 436.514 111.711 437.55 112.251C438.587 112.791 439.419 113.482 440.045 114.324C440.671 115.166 441.19 116.16 441.6 117.305C442.01 118.449 442.291 119.572 442.442 120.674C442.615 121.775 442.701 122.909 442.701 124.076C442.701 125.242 442.615 126.376 442.442 127.477C442.291 128.579 442.01 129.702 441.6 130.846C441.19 131.991 440.671 132.985 440.045 133.827C439.419 134.669 438.587 135.36 437.55 135.9C436.514 136.44 435.347 136.71 434.052 136.71C432.756 136.71 431.589 136.44 430.553 135.9C429.516 135.36 428.685 134.669 428.058 133.827C427.432 132.985 426.913 131.991 426.503 130.846C426.093 129.702 425.801 128.579 425.628 127.477C425.477 126.376 425.402 125.242 425.402 124.076C425.402 122.909 425.477 121.775 425.628 120.674C425.801 119.572 426.093 118.449 426.503 117.305C426.913 116.16 427.432 115.166 428.058 114.324C428.685 113.482 429.516 112.791 430.553 112.251ZM436.19 124.076C436.19 119.41 435.477 117.078 434.052 117.078C432.626 117.078 431.913 119.41 431.913 124.076C431.913 128.741 432.626 131.073 434.052 131.073C435.477 131.073 436.19 128.741 436.19 124.076ZM450.785 129.713L446.509 141.473H441.325L444.306 129.713H450.785ZM455.345 112.251C456.382 111.711 457.548 111.441 458.844 111.441C460.14 111.441 461.306 111.711 462.343 112.251C463.379 112.791 464.211 113.482 464.837 114.324C465.464 115.166 465.982 116.16 466.392 117.305C466.803 118.449 467.083 119.572 467.235 120.674C467.407 121.775 467.494 122.909 467.494 124.076C467.494 125.242 467.407 126.376 467.235 127.477C467.083 128.579 466.803 129.702 466.392 130.846C465.982 131.991 465.464 132.985 464.837 133.827C464.211 134.669 463.379 135.36 462.343 135.9C461.306 136.44 460.14 136.71 458.844 136.71C457.548 136.71 456.382 136.44 455.345 135.9C454.308 135.36 453.477 134.669 452.851 133.827C452.224 132.985 451.706 131.991 451.295 130.846C450.885 129.702 450.594 128.579 450.421 127.477C450.27 126.376 450.194 125.242 450.194 124.076C450.194 122.909 450.27 121.775 450.421 120.674C450.594 119.572 450.885 118.449 451.295 117.305C451.706 116.16 452.224 115.166 452.851 114.324C453.477 113.482 454.308 112.791 455.345 112.251ZM460.982 124.076C460.982 119.41 460.269 117.078 458.844 117.078C457.418 117.078 456.706 119.41 456.706 124.076C456.706 128.741 457.418 131.073 458.844 131.073C460.269 131.073 460.982 128.741 460.982 124.076ZM472.629 112.251C473.666 111.711 474.832 111.441 476.128 111.441C477.424 111.441 478.59 111.711 479.627 112.251C480.664 112.791 481.495 113.482 482.121 114.324C482.748 115.166 483.266 116.16 483.676 117.305C484.087 118.449 484.368 119.572 484.519 120.674C484.692 121.775 484.778 122.909 484.778 124.076C484.778 125.242 484.692 126.376 484.519 127.477C484.368 128.579 484.087 129.702 483.676 130.846C483.266 131.991 482.748 132.985 482.121 133.827C481.495 134.669 480.664 135.36 479.627 135.9C478.59 136.44 477.424 136.71 476.128 136.71C474.832 136.71 473.666 136.44 472.629 135.9C471.593 135.36 470.761 134.669 470.135 133.827C469.508 132.985 468.99 131.991 468.58 130.846C468.169 129.702 467.878 128.579 467.705 127.477C467.554 126.376 467.478 125.242 467.478 124.076C467.478 122.909 467.554 121.775 467.705 120.674C467.878 119.572 468.169 118.449 468.58 117.305C468.99 116.16 469.508 115.166 470.135 114.324C470.761 113.482 471.593 112.791 472.629 112.251ZM478.266 124.076C478.266 119.41 477.553 117.078 476.128 117.078C474.703 117.078 473.99 119.41 473.99 124.076C473.99 128.741 474.703 131.073 476.128 131.073C477.553 131.073 478.266 128.741 478.266 124.076ZM489.913 112.251C490.95 111.711 492.116 111.441 493.412 111.441C494.708 111.441 495.874 111.711 496.911 112.251C497.948 112.791 498.779 113.482 499.406 114.324C500.032 115.166 500.55 116.16 500.961 117.305C501.371 118.449 501.652 119.572 501.803 120.674C501.976 121.775 502.062 122.909 502.062 124.076C502.062 125.242 501.976 126.376 501.803 127.477C501.652 128.579 501.371 129.702 500.961 130.846C500.55 131.991 500.032 132.985 499.406 133.827C498.779 134.669 497.948 135.36 496.911 135.9C495.874 136.44 494.708 136.71 493.412 136.71C492.116 136.71 490.95 136.44 489.913 135.9C488.877 135.36 488.045 134.669 487.419 133.827C486.792 132.985 486.274 131.991 485.864 130.846C485.453 129.702 485.162 128.579 484.989 127.477C484.838 126.376 484.762 125.242 484.762 124.076C484.762 122.909 484.838 121.775 484.989 120.674C485.162 119.572 485.453 118.449 485.864 117.305C486.274 116.16 486.792 115.166 487.419 114.324C488.045 113.482 488.877 112.791 489.913 112.251ZM495.55 124.076C495.55 119.41 494.838 117.078 493.412 117.078C491.987 117.078 491.274 119.41 491.274 124.076C491.274 128.741 491.987 131.073 493.412 131.073C494.838 131.073 495.55 128.741 495.55 124.076Z" fill="#232323"/>
<circle cx="510.471" cy="153.471" r="14.3694" stroke="#A8D507" stroke-width="1.79618"/>
<circle cx="510.471" cy="153.471" r="9.87898" fill="#A8D507"/>
<path d="M48.4123 48H42.7069L39.7897 39.8937L39.7381 39.9453C39.7381 40.1518 39.7467 40.453 39.7639 40.8489C39.7811 41.2447 39.7897 41.6062 39.7897 41.9332C39.8069 42.243 39.8155 42.5355 39.8155 42.8109V48H34.549V28.5345H39.6348C40.8396 28.5345 41.898 28.6378 42.8102 28.8443C43.7224 29.0336 44.5399 29.3692 45.2628 29.8511C46.0028 30.3158 46.5622 30.9784 46.9408 31.839C47.3195 32.6995 47.5088 33.758 47.5088 35.0144C47.5088 36.1331 47.2506 37.1313 46.7343 38.0091C46.2352 38.8696 45.4865 39.4978 44.4883 39.8937L48.4123 48ZM39.8155 37.5186L40.1511 37.5444C40.8223 37.5444 41.3473 37.3034 41.7259 36.8215C42.1046 36.3224 42.2939 35.7372 42.2939 35.066C42.2939 34.2399 42.0701 33.6375 41.6227 33.2589C41.1752 32.863 40.5728 32.6823 39.8155 32.7167V37.5186ZM49.0969 48V28.5345H58.8813V33.1298H54.3634V35.8405H58.4166V40.4358H54.3634V43.4047H58.8813V48H49.0969ZM69.2342 48H63.8644L59.3982 28.5345H64.9229L66.1621 36.5376C66.2481 37.1227 66.3514 37.9488 66.4719 39.0159C66.5924 40.083 66.6784 40.8231 66.73 41.2361H66.7817C66.8505 40.8231 66.9366 40.083 67.0398 39.0159C67.1603 37.9488 67.2722 37.1227 67.3754 36.5376L68.8212 28.5345H74.5266L69.2342 48ZM75.0413 48V28.5345H84.8257V33.1298H80.3078V35.8405H84.361V40.4358H80.3078V43.4047H84.8257V48H75.0413ZM86.8916 48V28.5345H91.8999L96.108 40.2551L96.1596 40.2035C96.108 39.7216 96.022 39.0159 95.9015 38.0865C95.7982 37.1571 95.7122 36.331 95.6433 35.6082C95.5917 34.8681 95.5659 34.1624 95.5659 33.4912V28.5345H100.626V48H95.5659L91.6418 36.7699L91.5902 36.8215C91.6246 37.2002 91.6762 37.7767 91.7451 38.5512C91.8139 39.3085 91.8655 39.9883 91.8999 40.5907C91.9344 41.1759 91.9516 41.7438 91.9516 42.2946V48H86.8916ZM110.522 28.5345H115.789V41.2619C115.789 41.8471 115.755 42.3979 115.686 42.9142C115.634 43.4305 115.471 44.0415 115.195 44.7471C114.937 45.4528 114.584 46.0552 114.137 46.5543C113.706 47.0362 113.061 47.4579 112.2 47.8193C111.34 48.1635 110.333 48.3356 109.18 48.3356C108.027 48.3356 107.02 48.1635 106.159 47.8193C105.299 47.4579 104.645 47.0362 104.197 46.5543C103.767 46.0552 103.414 45.4528 103.139 44.7471C102.881 44.0415 102.717 43.4305 102.648 42.9142C102.597 42.3979 102.571 41.8471 102.571 41.2619V28.5345H107.837V40.7714C107.837 41.6148 107.881 42.1827 107.967 42.4753C108.156 43.1121 108.56 43.4305 109.18 43.4305C109.834 43.4305 110.238 43.1207 110.393 42.5011C110.479 42.2085 110.522 41.6406 110.522 40.7972V28.5345ZM117.727 48V28.5345H127.511V33.1298H122.993V35.8405H127.047V40.4358H122.993V43.4047H127.511V48H117.727ZM143.021 36.7441H150.353L150.379 37.5702C150.379 44.7471 148.038 48.3356 143.357 48.3356C141.98 48.3356 140.784 48.0602 139.768 47.5095C138.753 46.9415 137.961 46.167 137.393 45.186C136.843 44.205 136.43 43.1551 136.154 42.0364C135.896 40.9005 135.767 39.6785 135.767 38.3705C135.767 37.0797 135.896 35.8663 136.154 34.7304C136.412 33.5773 136.817 32.5016 137.368 31.5034C137.936 30.4879 138.727 29.6876 139.743 29.1024C140.758 28.5001 141.946 28.1989 143.305 28.1989C144.837 28.1989 146.18 28.6378 147.333 29.5155C148.486 30.3761 149.355 31.5378 149.94 33.0007L144.854 34.8853C144.82 34.4206 144.665 33.9731 144.39 33.5429C144.131 33.1126 143.787 32.8974 143.357 32.8974C143.082 32.8974 142.832 32.9577 142.608 33.0782C142.385 33.1814 142.195 33.3363 142.04 33.5429C141.903 33.7322 141.774 33.9645 141.653 34.2399C141.533 34.4981 141.438 34.7734 141.369 35.066C141.317 35.3586 141.266 35.6684 141.214 35.9954C141.18 36.3052 141.154 36.615 141.137 36.9248C141.137 37.2174 141.128 37.5014 141.111 37.7767C141.111 38.0521 141.12 38.2931 141.137 38.4996C141.137 38.6545 141.137 38.7664 141.137 38.8352C141.137 38.9213 141.145 39.1192 141.163 39.429C141.18 39.7388 141.188 39.9883 141.188 40.1777C141.206 40.367 141.231 40.6251 141.266 40.9521C141.3 41.2791 141.343 41.5545 141.395 41.7783C141.464 41.9848 141.541 42.2171 141.627 42.4753C141.731 42.7335 141.851 42.94 141.989 43.0949C142.126 43.2498 142.29 43.3789 142.479 43.4821C142.686 43.5854 142.909 43.637 143.15 43.637C143.787 43.637 144.252 43.3445 144.544 42.7593C144.837 42.1741 144.975 41.5373 144.958 40.8489H143.021V36.7441ZM151.664 48V28.5345H161.449V33.1298H156.931V35.8405H160.984V40.4358H156.931V43.4047H161.449V48H151.664ZM163.515 48V28.5345H168.523L172.731 40.2551L172.783 40.2035C172.731 39.7216 172.645 39.0159 172.525 38.0865C172.421 37.1571 172.335 36.331 172.266 35.6082C172.215 34.8681 172.189 34.1624 172.189 33.4912V28.5345H177.249V48H172.189L168.265 36.7699L168.213 36.8215C168.248 37.2002 168.299 37.7767 168.368 38.5512C168.437 39.3085 168.489 39.9883 168.523 40.5907C168.557 41.1759 168.575 41.7438 168.575 42.2946V48H163.515ZM179.323 48V28.5345H189.107V33.1298H184.59V35.8405H188.643V40.4358H184.59V43.4047H189.107V48H179.323ZM205.037 48H199.331L196.414 39.8937L196.362 39.9453C196.362 40.1518 196.371 40.453 196.388 40.8489C196.406 41.2447 196.414 41.6062 196.414 41.9332C196.431 42.243 196.44 42.5355 196.44 42.8109V48H191.173V28.5345H196.259C197.464 28.5345 198.522 28.6378 199.435 28.8443C200.347 29.0336 201.164 29.3692 201.887 29.8511C202.627 30.3158 203.187 30.9784 203.565 31.839C203.944 32.6995 204.133 33.758 204.133 35.0144C204.133 36.1331 203.875 37.1313 203.359 38.0091C202.86 38.8696 202.111 39.4978 201.113 39.8937L205.037 48ZM196.44 37.5186L196.776 37.5444C197.447 37.5444 197.972 37.3034 198.35 36.8215C198.729 36.3224 198.918 35.7372 198.918 35.066C198.918 34.2399 198.695 33.6375 198.247 33.2589C197.8 32.863 197.197 32.6823 196.44 32.7167V37.5186ZM219.61 48H214.163L213.776 45.4958H210.239L209.8 48H204.379L209.052 28.5345H215.48L219.61 48ZM210.936 41.3652H213.156L212.588 36.8473C212.537 36.4859 212.485 36.0987 212.434 35.6856C212.399 35.2726 212.356 34.8251 212.304 34.3432C212.27 33.844 212.236 33.4568 212.201 33.1814H212.15C211.874 35.2639 211.711 36.4859 211.659 36.8473L210.936 41.3652ZM226.111 48H220.844V33.2847H217.953V28.5345H229.131V33.2847H226.111V48ZM230.203 48V28.5345H239.988V33.1298H235.47V35.8405H239.523V40.4358H235.47V43.4047H239.988V48H230.203ZM242.054 48V28.5345H246.288C249.231 28.5345 251.503 29.395 253.103 31.1161C254.704 32.8372 255.504 35.1951 255.504 38.1898C255.504 39.429 255.392 40.5563 255.168 41.5717C254.945 42.57 254.661 43.4047 254.317 44.0759C253.972 44.7471 253.542 45.3323 253.026 45.8314C252.509 46.3133 251.993 46.692 251.477 46.9673C250.978 47.2427 250.418 47.4665 249.799 47.6386C249.179 47.7935 248.628 47.8967 248.146 47.9484C247.682 47.9828 247.183 48 246.649 48H242.054ZM247.32 33.388V43.3014C247.888 43.3014 248.37 43.1379 248.766 42.8109C249.162 42.4839 249.446 42.0622 249.618 41.5459C249.807 41.0124 249.936 40.4961 250.005 39.9969C250.091 39.4978 250.134 38.9815 250.134 38.448C250.134 35.0746 249.196 33.388 247.32 33.388Z" fill="#232323"/>
</g>
<defs>
<filter id="filter0_dddd_551_739" x="301.182" y="86.0909" width="294.81" height="213.818" filterUnits="userSpaceOnUse" color-interpolation-filters="sRGB">
<feFlood flood-opacity="0" result="BackgroundImageFix"/>
<feColorMatrix in="SourceAlpha" type="matrix" values="0 0 0 0 0 0 0 0 0 0 0 0 0 0 0 0 0 0 127 0" result="hardAlpha"/>
<feOffset dx="2.42975" dy="6.47934"/>
<feGaussianBlur stdDeviation="7.69421"/>
<feColorMatrix type="matrix" values="0 0 0 0 0.290196 0 0 0 0 0.290196 0 0 0 0 0.290196 0 0 0 0.1 0"/>
<feBlend mode="normal" in2="BackgroundImageFix" result="effect1_dropShadow_551_739"/>
<feColorMatrix in="SourceAlpha" type="matrix" values="0 0 0 0 0 0 0 0 0 0 0 0 0 0 0 0 0 0 127 0" result="hardAlpha"/>
<feOffset dx="9.71901" dy="25.9174"/>
<feGaussianBlur stdDeviation="13.7686"/>
<feColorMatrix type="matrix" values="0 0 0 0 0.290196 0 0 0 0 0.290196 0 0 0 0 0.290196 0 0 0 0.09 0"/>
<feBlend mode="normal" in2="effect1_dropShadow_551_739" result="effect2_dropShadow_551_739"/>
<feColorMatrix in="SourceAlpha" type="matrix" values="0 0 0 0 0 0 0 0 0 0 0 0 0 0 0 0 0 0 127 0" result="hardAlpha"/>
<feOffset dx="21.0578" dy="58.314"/>
<feGaussianBlur stdDeviation="18.6281"/>
<feColorMatrix type="matrix" values="0 0 0 0 0.290196 0 0 0 0 0.290196 0 0 0 0 0.290196 0 0 0 0.05 0"/>
<feBlend mode="normal" in2="effect2_dropShadow_551_739" result="effect3_dropShadow_551_739"/>
<feColorMatrix in="SourceAlpha" type="matrix" values="0 0 0 0 0 0 0 0 0 0 0 0 0 0 0 0 0 0 127 0" result="hardAlpha"/>
<feOffset dx="37.2562" dy="103.669"/>
<feGaussianBlur stdDeviation="21.8678"/>
<feColorMatrix type="matrix" values="0 0 0 0 0.290196 0 0 0 0 0.290196 0 0 0 0 0.290196 0 0 0 0.01 0"/>
<feBlend mode="normal" in2="effect3_dropShadow_551_739" result="effect4_dropShadow_551_739"/>
<feBlend mode="normal" in="SourceGraphic" in2="effect4_dropShadow_551_739" result="shape"/>
</filter>
<linearGradient id="paint0_linear_551_739" x1="342.156" y1="156" x2="342.156" y2="372.347" gradientUnits="userSpaceOnUse">
<stop stop-color="#F3FFCA"/>
<stop offset="1" stop-color="white" stop-opacity="0"/>
</linearGradient>
<clipPath id="clip0_551_739">
<rect width="584" height="433" fill="white"/>
</clipPath>
</defs>
</svg>
