<?xml version="1.0" encoding="UTF-8" standalone="no"?>
<!-- Created with Inkscape (http://www.inkscape.org/) -->

<svg
   xmlns:dc="http://purl.org/dc/elements/1.1/"
   xmlns:cc="http://creativecommons.org/ns#"
   xmlns:rdf="http://www.w3.org/1999/02/22-rdf-syntax-ns#"
   xmlns:svg="http://www.w3.org/2000/svg"
   xmlns="http://www.w3.org/2000/svg"
   xmlns:sodipodi="http://sodipodi.sourceforge.net/DTD/sodipodi-0.dtd"
   xmlns:inkscape="http://www.inkscape.org/namespaces/inkscape"
   width="251.18364mm"
   height="192.52644mm"
   viewBox="0 0 251.18364 192.52644"
   version="1.1"
   id="svg51974"
   inkscape:version="0.92.4 (5da689c313, 2019-01-14)"
   sodipodi:docname="wesco.svg">
  <defs
     id="defs51968" />
  <sodipodi:namedview
     id="base"
     pagecolor="#ffffff"
     bordercolor="#666666"
     borderopacity="1.0"
     inkscape:pageopacity="0.0"
     inkscape:pageshadow="2"
     inkscape:zoom="0.35"
     inkscape:cx="1342.3268"
     inkscape:cy="628.6214"
     inkscape:document-units="mm"
     inkscape:current-layer="layer1"
     showgrid="false"
     fit-margin-top="0"
     fit-margin-left="0"
     fit-margin-right="0"
     fit-margin-bottom="0"
     inkscape:window-width="1920"
     inkscape:window-height="1001"
     inkscape:window-x="-9"
     inkscape:window-y="-9"
     inkscape:window-maximized="1" />
  <metadata
     id="metadata51971">
    <rdf:RDF>
      <cc:Work
         rdf:about="">
        <dc:format>image/svg+xml</dc:format>
        <dc:type
           rdf:resource="http://purl.org/dc/dcmitype/StillImage" />
        <dc:title></dc:title>
      </cc:Work>
    </rdf:RDF>
  </metadata>
  <g
     inkscape:label="Layer 1"
     inkscape:groupmode="layer"
     id="layer1"
     transform="translate(361.96086,-122.62965)">
    <g
       transform="translate(220.39753,-324.0745)"
       id="g51930">
      <g
         style="fill:#1d252d;fill-opacity:1"
         id="g51919">
        <path
           style="fill:#1d252d;fill-opacity:1;stroke-width:0.26458332"
           inkscape:connector-curvature="0"
           class="st0"
           d="m -490.68662,592.00789 c -12.25021,0 -21.51062,9.89542 -21.51062,22.9923 0,13.28208 9.49854,22.91291 22.56895,22.91291 7.01146,0 12.83229,-2.51354 17.30375,-7.43479 0.21167,-0.23812 0.3175,-0.52917 0.29104,-0.84667 -0.0265,-0.3175 -0.15875,-0.635 -0.39687,-0.84666 l -4.36563,-3.86292 c -0.44979,-0.39687 -1.16416,-0.39687 -1.61395,0.0265 -3.46605,3.175 -6.77334,4.49792 -11.03313,4.49792 -6.40292,0 -12.065,-4.94771 -12.43542,-10.82146 h 30.85042 c 0.635,0 1.13771,-0.47625 1.19063,-1.11125 0.0529,-0.52917 0.0794,-1.13771 0.0794,-1.74625 0,-6.53521 -1.85208,-12.43542 -5.21229,-16.64229 -3.70417,-4.65667 -9.15458,-7.1173 -15.71625,-7.1173 z m 10.87437,19.15584 h -22.17208 c 0.0794,-6.08542 4.86833,-10.66271 11.19188,-10.66271 6.74687,0 10.90083,5.50333 10.9802,10.66271 z"
           id="path51830" />
        <path
           style="fill:#1d252d;fill-opacity:1;stroke-width:0.26458332"
           inkscape:connector-curvature="0"
           class="st0"
           d="m -443.11454,611.13727 -0.84666,-0.26458 c -4.7625,-1.53459 -8.89,-2.8575 -8.89,-5.715 v -0.15875 c 0,-2.59292 2.35479,-4.2598 5.97958,-4.2598 3.25437,0 7.27604,1.27 11.32417,3.57188 0.29104,0.15875 0.60854,0.21167 0.92604,0.10583 0.3175,-0.0794 0.55562,-0.29104 0.71437,-0.55562 l 2.96334,-5.29167 c 0.3175,-0.58208 0.13229,-1.27 -0.39688,-1.61396 -4.63021,-2.83104 -10.18646,-4.445 -15.29292,-4.445 -9.26041,0 -15.71625,5.52979 -15.71625,13.46729 v 0.15875 c 0,8.3873 7.09084,11.08605 13.75834,12.96459 l 1.03187,0.3175 c 4.63021,1.40229 8.65188,2.61937 8.65188,5.68854 v 0.15875 c 0,2.8575 -2.48709,4.57729 -6.64104,4.57729 -4.28625,0 -9.0223,-1.66687 -13.335,-4.70958 -0.26459,-0.18521 -0.60855,-0.26459 -0.92605,-0.21167 -0.3175,0.0529 -0.58208,0.23813 -0.76729,0.50271 l -3.30729,5.02708 c -0.34396,0.52917 -0.23812,1.27 0.29104,1.64042 5.15938,3.78354 11.66813,5.95312 17.83292,5.95312 10.10708,0 16.37771,-5.31812 16.37771,-13.89062 v -0.15875 c -0.0529,-7.56708 -6.61459,-10.66271 -13.73188,-12.85875 z"
           id="path51832" />
        <path
           style="fill:#1d252d;fill-opacity:1;stroke-width:0.26458332"
           inkscape:connector-curvature="0"
           class="st0"
           d="m -387.7637,624.5781 c -0.47625,-0.44979 -1.21709,-0.44979 -1.69334,0 -3.33375,3.175 -6.6675,4.68313 -10.50396,4.68313 -7.38187,0 -12.93812,-6.0325 -12.93812,-14.02292 0,-7.77875 5.47687,-13.86417 12.43542,-13.86417 4.04812,0 7.1702,1.37584 10.4775,4.63021 0.23812,0.23813 0.52916,0.34396 0.84666,0.34396 0,0 0.0265,0 0.0265,0 0.3175,0 0.60854,-0.13229 0.84667,-0.37042 l 4.78896,-5.15937 c 0.44979,-0.47625 0.42333,-1.19063 0,-1.64042 -4.52438,-4.68312 -9.89542,-6.85271 -16.88042,-6.85271 -12.80583,0 -22.83354,10.13355 -22.83354,23.07167 0,12.80583 10.00125,22.83354 22.75416,22.83354 7.14375,0 12.32959,-2.24896 17.2773,-7.48771 0.44979,-0.47625 0.42333,-1.21708 -0.0529,-1.66687 z"
           id="path51834" />
        <path
           style="fill:#1d252d;fill-opacity:1;stroke-width:0.26458332"
           inkscape:connector-curvature="0"
           class="st0"
           d="m -355.59037,592.00789 c -13.17625,0 -23.495,10.13355 -23.495,23.07167 0,12.80583 10.23937,22.83354 23.33625,22.83354 13.20271,0 23.57437,-10.10708 23.57437,-22.99229 0,-6.19125 -2.35479,-11.93271 -6.64104,-16.1925 -4.36562,-4.33917 -10.31875,-6.72042 -16.77458,-6.72042 z m 13.09687,23.09813 c 0,8.01687 -5.50333,13.86417 -13.12333,13.86417 -7.51417,0 -13.20271,-6.0325 -13.20271,-14.02292 0,-8.01688 5.47688,-13.86417 13.0175,-13.86417 7.62,0 13.30854,6.00604 13.30854,14.02292 z"
           id="path51836" />
        <path
           style="fill:#1d252d;fill-opacity:1;stroke-width:0.26458332"
           inkscape:connector-curvature="0"
           class="st0"
           d="m -517.06558,593.19852 h -7.77875 c -0.52916,0 -0.97896,0.34396 -1.13771,0.84667 l -8.59895,28.91895 -13.04396,-27.96645 c -0.18521,-0.37042 -0.55563,-0.635 -0.97896,-0.635 v 0 c -0.42333,0 -0.79375,0.23812 -0.97896,0.635 l -12.91167,27.96645 -8.4402,-28.91895 c -0.15875,-0.50271 -0.635,-0.84667 -1.13771,-0.84667 h -8.06979 c -0.39688,0 -0.74084,0.18521 -0.97896,0.50271 -0.23813,0.3175 -0.29104,0.71437 -0.18521,1.08479 l 13.49375,41.88354 c 0.15875,0.50271 0.635,0.84667 1.13771,0.84667 h 7.46125 c 0.47625,0 0.89958,-0.29104 1.11125,-0.71438 l 9.44562,-21.9075 9.36625,21.9075 c 0.18521,0.44979 0.635,0.71438 1.11125,0.71438 h 7.46125 c 0.52917,0 0.97896,-0.34396 1.13771,-0.84667 l 13.62604,-41.91 c 0.13229,-0.37042 0.0529,-0.76729 -0.15875,-1.08479 -0.21166,-0.29104 -0.55562,-0.47625 -0.9525,-0.47625 z"
           id="path51838" />
      </g>
      <path
         id="path51842"
         d="m -391.17683,562.29519 58.49937,-110.01375 c 1.0848,-2.06375 -0.39687,-4.55084 -2.7252,-4.55084 h -56.8325 c -1.64042,0 -3.12209,0.89959 -3.88938,2.3548 l -30.34771,57.0177 29.3423,55.19209 c 0.58208,1.11125 1.71979,1.79916 2.96333,1.79916 v 0 c 1.27,-0.0265 2.40771,-0.71437 2.98979,-1.79916 z"
         class="st1"
         inkscape:connector-curvature="0"
         style="fill:#00aa13;stroke-width:0.26458332" />
      <path
         id="path51844"
         d="m -580.85662,452.28144 55.85354,105.06604 30.50646,-57.38813 -26.51125,-49.90041 c -0.76729,-1.42875 -2.27542,-2.35479 -3.88937,-2.35479 h -53.23417 c -2.32833,0.0264 -3.81,2.51354 -2.72521,4.57729 z"
         class="st1"
         inkscape:connector-curvature="0"
         style="fill:#00aa13;stroke-width:0.26458332" />
      <path
         id="path51846"
         d="m -521.40474,564.06789 h 61.99187 c 1.64042,0 3.12208,-0.89958 3.88937,-2.35479 l 29.05125,-54.63645 -29.34229,-55.16563 c -0.58208,-1.08479 -1.71979,-1.79917 -2.96333,-1.79917 v 0 c -1.24354,0 -2.38125,0.68792 -2.96333,1.79917 z"
         class="st1"
         inkscape:connector-curvature="0"
         style="fill:#00aa13;stroke-width:0.26458332" />
    </g>
  </g>
</svg>
